<svg width="848" height="706" viewBox="0 0 848 706" fill="none" xmlns="http://www.w3.org/2000/svg">
<g filter="url(#filter0_f_9_166)">
<path d="M843.797 584.864C791.283 586.558 781.119 589.946 765.873 584.864C750.627 579.782 718.441 562.842 704.889 562.842C691.337 562.842 681.173 557.76 672.703 557.76C664.233 557.76 654.069 552.678 647.293 552.678C640.517 552.678 623.577 549.29 620.189 550.984C616.801 552.678 599.861 549.29 596.473 547.596C593.085 545.902 586.309 542.514 584.615 535.738C582.921 528.962 586.309 518.798 589.697 515.41C593.085 512.022 604.943 503.552 610.025 501.858C615.107 500.164 635.435 498.47 643.905 498.47C652.375 498.47 677.785 501.858 681.173 501.858C684.561 501.858 713.359 508.634 718.441 510.328C723.523 512.022 755.709 517.104 757.403 515.41C759.097 513.716 759.097 503.552 754.015 498.47C748.933 493.388 730.299 479.836 726.911 478.142C724.2 476.787 704.889 462.896 696.419 459.508" stroke="black" stroke-width="0.63"/>
<path d="M696.419 459.508C693.031 457.814 672.703 451.038 669.315 449.344C667.172 448.273 633.741 440.874 633.741 440.874C633.741 440.874 593.084 430.71 586.308 430.71C579.532 430.71 542.264 435.792 535.488 435.792C528.712 435.792 513.466 439.18 506.69 435.792C499.914 432.404 498.22 430.71 498.22 423.934C498.22 421.201 499.874 418.193 502.18 415.464M716.747 406.994C706.583 401.912 613.412 386.666 606.636 386.666C599.86 386.666 549.04 401.912 542.264 401.912C535.488 401.912 518.548 405.3 513.466 406.994C510.434 408.005 505.593 411.428 502.18 415.464M502.18 415.464C498.602 416.029 491.106 415.126 489.75 406.994C488.056 396.83 491.444 388.36 494.832 384.972C498.22 381.584 504.996 381.584 513.466 379.89C519.85 378.614 528.157 376.375 535.488 375.349M742.157 361.256C740.463 358.997 737.752 357.529 726.911 356.174C713.359 354.48 623.576 359.562 610.025 359.562C596.473 359.562 594.779 364.644 586.308 364.644C577.838 364.644 550.735 374.808 542.264 374.808C540.178 374.808 537.885 375.014 535.488 375.349M535.488 375.349C533.23 373.475 530.068 368.71 535.488 364.644C542.264 359.562 555.817 359.562 559.205 359.562C562.593 359.562 596.473 351.092 601.555 351.092C606.636 351.092 620.188 346.01 623.576 346.01C625.943 346.01 655.583 340.225 674.397 336.736M760.791 336.736C754.015 331.654 693.03 334.152 689.643 334.152C688.621 334.152 682.518 335.23 674.397 336.736M674.397 336.736C682.867 331.357 701.162 320.6 706.583 320.6C713.359 320.6 754.015 322.294 754.015 322.294C754.015 322.294 776.573 327.555 781.119 329.07C786.201 330.764 799.753 331.568 806.529 334.152C813.305 336.736 838.715 347.704 843.797 352.786" stroke="black" stroke-width="0.63"/>
</g>
<g filter="url(#filter1_f_9_166)">
<path d="M21 691.502C44.716 698.278 83.678 701.667 93.842 701.667C104.006 701.667 120.946 701.667 131.11 701.667C141.274 701.667 171.766 696.585 176.848 694.891C181.93 693.197 202.258 688.115 205.646 683.033C209.034 677.951 207.34 674.563 202.258 671.175C197.176 667.787 188.706 666.093 183.624 666.093C180.946 666.093 173.564 667.342 166.684 667.786C160.507 668.186 154.735 667.786 153.132 667.786C149.744 667.786 131.11 666.093 122.64 666.093C117.939 666.093 108.704 665.276 101.042 663.128M87.913 658.046C90.9282 658.8 94.8984 661.407 101.042 663.128M132.804 630.518C136.192 627.13 173.46 623.742 183.624 623.742C193.788 623.742 227.668 618.66 232.75 616.966C237.832 615.272 258.16 610.191 263.242 610.19C268.324 610.19 279.025 610.369 283.57 611.884C288.652 613.578 292.663 616.518 293.734 618.66C295.428 622.048 293.734 627.13 288.652 630.518C284.586 633.229 275.1 636.165 268.324 637.294C257.482 638.65 243.479 643.506 237.832 645.764C229.362 648.588 209.458 652.964 203.952 653.811C197.383 654.822 159.908 660.587 159.908 660.587C159.908 660.587 133.651 663.975 131.11 663.975C129.077 663.975 109.218 663.128 101.042 663.128" stroke="black" stroke-width="0.63"/>
<path d="M136.191 595.792C148.823 592.143 174.932 587.777 183.2 587.777C188.282 587.777 210.325 587.777 218.938 587.777C227.551 587.777 246.498 584.128 251.666 582.304C256.833 580.48 272.69 577.314 279.226 575.007C284.394 573.183 303.062 569.534 308.509 569.534C313.677 569.534 324.012 573.183 325.734 578.656C326.824 582.117 325.734 589.601 318.844 591.426C311.954 593.25 284.394 599.896 279.226 601.72C274.324 603.451 237.408 615.696 231.479 617.39" stroke="black" stroke-width="0.63"/>
<path d="M100.618 564.452C127.045 564.452 146.017 559.69 154.826 559.69C163.635 559.69 176.933 556.406 185.742 556.406C194.55 556.406 215.895 556.406 224.704 556.406C231.751 556.406 252.197 554.196 262.768 551.449C272.164 548.702 290.956 544.856 294.48 544.856C298.003 544.857 308.574 543.208 312.097 544.856C315.621 546.504 319.144 549.802 319.144 553.098C319.144 558.043 302.936 571.228 294.48 571.228" stroke="black" stroke-width="0.63"/>
<path d="M101.863 564.452C80.2299 561.005 39.9593 541.354 38.628 538.596M65.2532 552.404C73.5736 543.785 116.839 523.083 126.824 517.912C136.808 512.741 158.441 504.122 163.434 497.227C167.427 491.711 172.19 484.411 170.09 476.543C167.99 468.674 161.104 466.2 151.785 466.2C140.137 466.2 113.511 476.543 106.855 479.99C99.4131 483.844 76.9017 492.056 65.2532 497.227C54.5465 501.98 33.6358 505.846 21.9873 505.846" stroke="black" stroke-width="0.63"/>
</g>
<g opacity="0.3" filter="url(#filter2_g_9_166)">
<path d="M608.734 361.335C573.931 362.457 567.195 364.703 557.091 361.335C546.987 357.967 525.657 346.74 516.675 346.74C507.694 346.74 500.958 343.372 495.345 343.372C489.732 343.372 482.996 340.004 478.505 340.004C474.014 340.004 462.788 337.759 460.542 338.881C458.297 340.004 447.071 337.759 444.825 336.636C442.58 335.513 438.089 333.268 436.967 328.778C435.844 324.287 438.089 317.551 440.335 315.306C442.58 313.06 450.439 307.447 453.807 306.324C457.175 305.202 470.647 304.079 476.26 304.079C481.873 304.079 498.713 306.324 500.958 306.324C503.204 306.324 522.289 310.815 525.657 311.938C529.025 313.06 550.355 316.428 551.478 315.306C552.601 314.183 552.601 307.447 549.233 304.079C545.865 300.711 533.515 291.73 531.27 290.607C529.474 289.709 516.676 280.503 511.062 278.258" stroke="#2B2B2B" stroke-width="0.7"/>
<path d="M511.063 278.258C508.818 277.136 495.346 272.645 493.101 271.522C491.68 270.813 469.525 265.909 469.525 265.909C469.525 265.909 442.581 259.173 438.09 259.173C433.599 259.173 408.901 262.541 404.41 262.541C399.92 262.541 389.816 264.787 385.325 262.541C380.834 260.296 379.712 259.173 379.712 254.683C379.712 252.871 380.808 250.878 382.336 249.069M524.535 243.456C517.799 240.088 456.053 229.984 451.562 229.984C447.071 229.984 413.392 240.088 408.901 240.088C404.41 240.088 393.184 242.333 389.816 243.456C387.806 244.126 384.598 246.394 382.336 249.069M382.336 249.069C379.964 249.444 374.997 248.845 374.098 243.456C372.976 236.72 375.221 231.107 377.466 228.862C379.712 226.616 384.202 226.616 389.816 225.494C394.046 224.647 399.552 223.164 404.41 222.484M541.375 213.144C540.252 211.647 538.456 210.674 531.271 209.776C522.29 208.653 462.789 212.022 453.807 212.022C444.826 212.022 443.703 215.39 438.09 215.39C432.477 215.39 414.514 222.126 408.901 222.126C407.518 222.126 405.999 222.262 404.41 222.484M404.41 222.484C402.913 221.242 400.818 218.084 404.41 215.39C408.901 212.022 417.882 212.022 420.128 212.022C422.373 212.022 444.826 206.408 448.194 206.408C451.562 206.408 460.543 203.04 462.789 203.04C464.357 203.04 484 199.206 496.468 196.894M553.724 196.894C549.234 193.526 508.818 195.182 506.572 195.182C505.895 195.182 501.851 195.896 496.468 196.894M496.468 196.894C502.082 193.329 514.207 186.2 517.799 186.2C522.29 186.2 549.234 187.323 549.234 187.323C549.234 187.323 564.184 190.809 567.196 191.813C570.564 192.936 579.545 193.469 584.036 195.182C588.527 196.894 605.367 204.163 608.734 207.531" stroke="#2B2B2B" stroke-width="0.7"/>
</g>
<g opacity="0.3" filter="url(#filter3_g_9_166)">
<path d="M177.8 372.544C193.517 377.035 219.338 379.28 226.074 379.28C232.81 379.28 244.037 379.28 250.773 379.28C257.509 379.28 277.717 375.912 281.085 374.79C284.453 373.667 297.924 370.299 300.17 366.931C302.415 363.563 301.292 361.318 297.924 359.072C294.556 356.827 288.943 355.704 285.575 355.704C283.8 355.704 278.908 356.532 274.349 356.827C270.255 357.091 266.429 356.827 265.367 356.827C263.122 356.827 250.773 355.704 245.159 355.704C242.044 355.704 235.924 355.163 230.845 353.74M222.145 350.372C224.143 350.871 226.774 352.599 230.845 353.74M251.895 332.128C254.141 329.883 278.839 327.638 285.575 327.638C292.311 327.638 314.764 324.27 318.132 323.147C321.5 322.024 334.972 318.656 338.34 318.656C341.708 318.656 348.8 318.775 351.812 319.779C355.18 320.902 357.838 322.849 358.548 324.27C359.671 326.515 358.548 329.883 355.18 332.128C352.486 333.924 346.199 335.87 341.708 336.619C334.523 337.517 325.242 340.735 321.5 342.232C315.887 344.103 302.696 347.004 299.047 347.565C294.694 348.235 269.858 352.056 269.858 352.056C269.858 352.056 252.457 354.301 250.773 354.301C249.426 354.301 236.264 353.74 230.845 353.74" stroke="#2B2B2B" stroke-width="0.7"/>
<path d="M254.142 309.114C262.513 306.696 279.816 303.802 285.295 303.802C288.663 303.802 303.272 303.802 308.98 303.802C314.688 303.802 327.245 301.384 330.67 300.175C334.094 298.966 344.603 296.869 348.935 295.34C352.359 294.131 364.731 291.712 368.341 291.712C371.766 291.712 378.615 294.13 379.757 297.758C380.479 300.051 379.757 305.012 375.191 306.221C370.624 307.43 352.359 311.834 348.935 313.043C345.686 314.19 321.221 322.305 317.291 323.428" stroke="#2B2B2B" stroke-width="0.7"/>
<path d="M230.564 288.345C248.078 288.345 260.652 285.189 266.49 285.189C272.327 285.189 281.14 283.013 286.978 283.013C292.816 283.013 306.961 283.013 312.799 283.013C317.47 283.013 331.02 281.548 338.025 279.727C344.252 277.907 356.707 275.358 359.042 275.358C361.377 275.359 368.382 274.266 370.717 275.358C373.052 276.451 375.388 278.636 375.388 280.82C375.388 284.098 364.646 292.836 359.042 292.836" stroke="#2B2B2B" stroke-width="0.7"/>
<path d="M231.39 288.345C217.053 286.06 190.365 273.037 189.482 271.209M207.128 280.36C212.642 274.648 241.315 260.928 247.932 257.501C254.549 254.074 268.886 248.362 272.194 243.793C274.841 240.137 277.998 235.299 276.606 230.085C275.214 224.87 270.65 223.23 264.475 223.23C256.755 223.23 239.11 230.085 234.698 232.369C229.766 234.924 214.847 240.366 207.128 243.793C200.032 246.943 186.174 249.505 178.454 249.505" stroke="#2B2B2B" stroke-width="0.7"/>
</g>
<g filter="url(#filter4_gf_9_166)">
<path d="M378.351 70.4551C463.228 70.4551 540.05 93.4311 595.639 130.554C651.231 167.678 685.545 218.916 685.545 275.45C685.545 331.984 651.231 383.222 595.639 420.347C540.05 457.469 463.228 480.445 378.351 480.445C293.473 480.445 216.651 457.469 161.062 420.347C105.469 383.222 71.1554 331.984 71.1553 275.45C71.1553 218.916 105.469 167.678 161.062 130.554C216.651 93.431 293.473 70.4551 378.351 70.4551Z" stroke="black" stroke-opacity="0.6" stroke-width="0.91"/>
</g>
<path d="M384.637 622.6H361.453C360.333 622.6 360.445 621.592 361.229 621.256C363.637 620.136 363.749 615.152 363.749 612.856V601.096C363.749 597.68 363.301 595.048 360.109 593.256C359.549 592.976 359.493 592.416 360.165 592.248C363.973 591.184 367.053 589.448 370.525 585.416C370.917 584.968 371.309 585.304 371.309 585.64C371.253 596.672 371.253 607.704 371.253 618.736C371.253 620.08 371.813 620.696 372.989 620.528C376.573 619.856 381.893 617.28 383.461 611.904C383.629 611.4 384.637 611.4 384.637 611.96V622.6ZM398.487 612.632C398.487 614.928 398.599 620.08 401.007 621.2C401.791 621.592 401.903 622.6 400.783 622.6C396.639 622.6 392.663 622.6 388.687 622.6C387.567 622.6 387.679 621.592 388.463 621.2C390.871 620.08 390.983 615.096 390.983 612.8V611.512C390.983 608.096 390.535 605.464 387.343 603.672C386.783 603.392 386.727 602.832 387.399 602.664C391.207 601.6 394.287 599.864 397.815 595.832C398.151 595.384 398.543 595.72 398.543 596.056C398.487 606.472 398.487 602.888 398.487 612.632ZM389.975 590.568C389.975 584.912 398.543 584.912 398.543 590.568C398.543 596 389.975 596 389.975 590.568ZM427.73 622.6H404.546C403.426 622.6 403.538 621.592 404.322 621.256C406.73 620.136 406.842 615.152 406.842 612.856V601.096C406.842 597.68 406.394 595.048 403.202 593.256C402.642 592.976 402.586 592.416 403.258 592.248C407.066 591.184 410.146 589.448 413.618 585.416C414.01 584.968 414.402 585.304 414.402 585.64C414.346 596.672 414.346 607.704 414.346 618.736C414.346 620.08 414.906 620.696 416.082 620.528C419.666 619.856 424.986 617.28 426.554 611.904C426.722 611.4 427.73 611.4 427.73 611.96V622.6ZM442.589 596.112C460.285 596.112 459.109 622.6 442.589 622.6C425.509 622.6 426.125 596.112 442.589 596.112ZM442.757 621.032C448.973 621.032 448.581 597.624 442.589 597.624C436.653 597.624 436.597 621.032 442.757 621.032Z" fill="black"/>
<path d="M361.817 648.88C361.817 648.376 361.733 648.021 361.565 647.816C361.415 647.611 361.201 647.508 360.921 647.508C360.846 647.508 360.715 647.527 360.529 647.564C360.417 647.583 360.361 647.536 360.361 647.424C361.761 647.125 362.787 646.668 363.441 646.052C363.571 646.015 363.618 646.052 363.581 646.164C363.469 646.575 363.394 647.116 363.357 647.788C363.338 648.441 363.329 649.533 363.329 651.064V664.224C363.329 664.747 363.478 665.167 363.777 665.484C364.094 665.783 364.505 665.951 365.009 665.988C365.065 665.988 365.093 666.016 365.093 666.072C365.111 666.128 365.083 666.156 365.009 666.156C364.673 666.137 363.87 666.128 362.601 666.128C361.35 666.128 360.547 666.137 360.193 666.156C360.099 666.156 360.053 666.128 360.053 666.072C360.053 665.997 360.099 665.96 360.193 665.96C361.294 665.997 361.845 665.419 361.845 664.224L361.817 648.88ZM370.274 664.224C370.274 664.747 370.423 665.167 370.722 665.484C371.039 665.783 371.45 665.951 371.954 665.988C372.029 665.988 372.066 666.016 372.066 666.072C372.066 666.128 372.029 666.156 371.954 666.156C371.618 666.137 370.815 666.128 369.546 666.128C368.295 666.128 367.493 666.137 367.138 666.156C367.063 666.156 367.026 666.128 367.026 666.072C367.026 665.997 367.063 665.96 367.138 665.96C368.239 665.997 368.79 665.419 368.79 664.224V655.964C368.79 655.516 368.706 655.189 368.538 654.984C368.389 654.779 368.127 654.676 367.754 654.676C367.586 654.676 367.371 654.704 367.11 654.76C367.054 654.779 367.017 654.769 366.998 654.732C366.979 654.676 366.989 654.639 367.026 654.62C368.575 654.247 369.649 653.855 370.246 653.444C370.321 653.388 370.386 653.379 370.442 653.416C370.498 653.435 370.526 653.463 370.526 653.5C370.451 654.004 370.386 654.48 370.33 654.928C370.293 655.357 370.274 655.861 370.274 656.44V664.224ZM369.266 649.272C368.93 649.272 368.65 649.197 368.426 649.048C368.221 648.88 368.118 648.684 368.118 648.46C368.118 648.18 368.249 647.947 368.51 647.76C368.79 647.555 369.145 647.452 369.574 647.452C369.91 647.452 370.181 647.536 370.386 647.704C370.61 647.853 370.722 648.049 370.722 648.292C370.722 648.553 370.582 648.787 370.302 648.992C370.041 649.179 369.695 649.272 369.266 649.272ZM374.195 653.836C374.12 653.836 374.083 653.817 374.083 653.78C374.083 653.743 374.111 653.715 374.167 653.696C374.689 653.603 375.063 653.481 375.287 653.332C375.529 653.164 375.688 652.903 375.763 652.548C375.856 652.175 375.903 651.615 375.903 650.868C375.903 649.897 376.099 649.067 376.491 648.376C376.883 647.667 377.387 647.135 378.003 646.78C378.619 646.407 379.253 646.22 379.907 646.22C380.243 646.22 380.56 646.276 380.859 646.388C380.933 646.425 380.971 646.463 380.971 646.5C380.989 646.537 380.98 646.593 380.943 646.668C380.868 646.817 380.756 646.985 380.607 647.172C380.457 647.34 380.355 647.461 380.299 647.536C380.261 647.611 380.224 647.657 380.187 647.676C380.149 647.676 380.103 647.657 380.047 647.62C379.505 647.284 378.964 647.116 378.423 647.116C377.844 647.116 377.387 647.321 377.051 647.732C376.845 647.993 376.743 648.413 376.743 648.992C376.743 649.403 376.799 650 376.911 650.784C377.023 651.568 377.163 652.455 377.331 653.444C377.368 653.593 377.489 653.668 377.695 653.668H380.859C380.896 653.668 380.905 653.696 380.887 653.752C380.868 653.808 380.821 653.836 380.747 653.836H378.003C377.76 653.836 377.583 653.892 377.471 654.004C377.377 654.097 377.331 654.303 377.331 654.62V664.196C377.331 664.831 377.517 665.279 377.891 665.54C378.264 665.801 378.815 665.932 379.543 665.932C379.655 665.932 379.711 665.969 379.711 666.044C379.711 666.1 379.655 666.128 379.543 666.128C379.151 666.109 378.441 666.1 377.415 666.1H375.763C374.979 666.1 374.437 666.109 374.139 666.128C374.064 666.128 374.027 666.1 374.027 666.044C374.027 665.988 374.064 665.96 374.139 665.96C374.699 665.96 375.119 665.829 375.399 665.568C375.697 665.288 375.847 664.831 375.847 664.196V654.592C375.847 654.312 375.819 654.116 375.763 654.004C375.707 653.892 375.585 653.836 375.399 653.836H374.195ZM392.007 663.776C392.026 663.739 392.054 663.739 392.091 663.776C392.128 663.795 392.138 663.832 392.119 663.888C391.391 664.765 390.588 665.409 389.711 665.82C388.834 666.231 387.835 666.436 386.715 666.436C385.632 666.436 384.624 666.175 383.691 665.652C382.776 665.111 382.048 664.364 381.507 663.412C380.966 662.441 380.695 661.331 380.695 660.08C380.695 658.755 380.994 657.579 381.591 656.552C382.188 655.507 382.991 654.704 383.999 654.144C385.007 653.565 386.099 653.276 387.275 653.276C388.582 653.276 389.664 653.668 390.523 654.452C391.382 655.217 391.811 656.225 391.811 657.476C391.811 658.017 391.708 658.624 391.503 659.296L388.675 659.352C385.744 659.389 383.514 659.436 381.983 659.492C382.058 660.799 382.412 661.909 383.047 662.824C383.682 663.72 384.447 664.392 385.343 664.84C386.239 665.288 387.116 665.512 387.975 665.512C388.666 665.512 389.384 665.391 390.131 665.148C390.878 664.905 391.503 664.448 392.007 663.776ZM386.631 653.724C383.532 653.724 381.983 655.488 381.983 659.016V659.324C382.991 659.305 384.354 659.259 386.071 659.184C388.012 659.109 389.375 659.063 390.159 659.044C390.29 658.671 390.355 658.26 390.355 657.812C390.355 657.121 390.187 656.459 389.851 655.824C389.534 655.189 389.086 654.685 388.507 654.312C387.928 653.92 387.303 653.724 386.631 653.724ZM395.449 648.88C395.449 648.376 395.365 648.021 395.197 647.816C395.048 647.611 394.833 647.508 394.553 647.508C394.479 647.508 394.348 647.527 394.161 647.564C394.049 647.583 393.993 647.536 393.993 647.424C395.393 647.125 396.42 646.668 397.073 646.052C397.204 646.015 397.251 646.052 397.213 646.164C397.101 646.575 397.027 647.116 396.989 647.788C396.971 648.441 396.961 649.533 396.961 651.064V664.224C396.961 664.747 397.111 665.167 397.409 665.484C397.727 665.783 398.137 665.951 398.641 665.988C398.697 665.988 398.725 666.016 398.725 666.072C398.744 666.128 398.716 666.156 398.641 666.156C398.305 666.137 397.503 666.128 396.233 666.128C394.983 666.128 394.18 666.137 393.825 666.156C393.732 666.156 393.685 666.128 393.685 666.072C393.685 665.997 393.732 665.96 393.825 665.96C394.927 665.997 395.477 665.419 395.477 664.224L395.449 648.88ZM406.679 666.464C405.559 666.464 404.532 666.203 403.599 665.68C402.665 665.139 401.919 664.392 401.359 663.44C400.817 662.469 400.547 661.359 400.547 660.108C400.547 658.895 400.845 657.775 401.443 656.748C402.059 655.703 402.899 654.872 403.963 654.256C405.027 653.621 406.203 653.304 407.491 653.304C408.611 653.304 409.647 653.575 410.599 654.116C411.551 654.639 412.297 655.385 412.839 656.356C413.399 657.308 413.679 658.391 413.679 659.604C413.679 660.817 413.371 661.956 412.755 663.02C412.139 664.065 411.289 664.905 410.207 665.54C409.143 666.156 407.967 666.464 406.679 666.464ZM407.379 665.876C408.947 665.876 410.169 665.447 411.047 664.588C411.924 663.729 412.363 662.451 412.363 660.752C412.363 659.632 412.111 658.549 411.607 657.504C411.121 656.44 410.44 655.572 409.563 654.9C408.685 654.228 407.724 653.892 406.679 653.892C405.167 653.892 403.981 654.312 403.123 655.152C402.283 655.992 401.863 657.261 401.863 658.96C401.863 660.08 402.105 661.172 402.591 662.236C403.076 663.3 403.739 664.177 404.579 664.868C405.437 665.54 406.371 665.876 407.379 665.876ZM431.606 662.404C431.606 662.311 431.634 662.264 431.69 662.264C431.764 662.245 431.802 662.292 431.802 662.404C431.802 663.729 431.578 664.737 431.13 665.428C430.7 666.1 430.196 666.436 429.618 666.436C429.132 666.436 428.74 666.24 428.442 665.848C428.162 665.437 427.919 664.803 427.714 663.944L425.978 656.748C425.828 656.113 425.651 655.609 425.446 655.236C425.259 654.863 424.97 654.583 424.578 654.396C424.186 654.191 423.644 654.088 422.954 654.088C422.207 654.088 421.516 654.293 420.882 654.704C420.247 655.096 419.734 655.693 419.342 656.496C418.968 657.28 418.782 658.241 418.782 659.38V664.392C418.782 664.933 418.931 665.325 419.23 665.568C419.528 665.811 419.939 665.951 420.462 665.988C420.536 665.988 420.574 666.016 420.574 666.072C420.574 666.128 420.536 666.156 420.462 666.156C420.107 666.137 419.314 666.128 418.082 666.128C416.85 666.128 416.038 666.137 415.646 666.156C415.571 666.156 415.534 666.128 415.534 666.072C415.534 665.997 415.571 665.96 415.646 665.96C416.224 665.96 416.644 665.857 416.906 665.652C417.167 665.428 417.298 664.999 417.298 664.364V655.964C417.298 655.516 417.214 655.189 417.046 654.984C416.896 654.779 416.635 654.676 416.262 654.676C416.094 654.676 415.879 654.704 415.618 654.76C415.562 654.779 415.524 654.769 415.506 654.732C415.487 654.676 415.496 654.639 415.534 654.62C417.083 654.247 418.156 653.855 418.754 653.444C418.828 653.388 418.894 653.379 418.95 653.416C419.006 653.435 419.034 653.463 419.034 653.5C418.959 654.004 418.894 654.48 418.838 654.928C418.8 655.357 418.782 655.861 418.782 656.44V657.196C418.987 656.487 419.342 655.833 419.846 655.236C420.35 654.639 420.938 654.163 421.61 653.808C422.282 653.453 422.954 653.276 423.626 653.276C424.82 653.276 425.688 653.547 426.23 654.088C426.79 654.611 427.2 655.432 427.462 656.552L429.198 663.664C429.328 664.243 429.487 664.681 429.674 664.98C429.86 665.279 430.094 665.428 430.374 665.428C430.504 665.428 430.663 665.344 430.85 665.176C431.055 665.008 431.232 664.7 431.382 664.252C431.531 663.804 431.606 663.188 431.606 662.404ZM441.417 666.184C442.276 666.184 442.966 666.445 443.489 666.968C444.012 667.509 444.273 668.135 444.273 668.844C444.273 669.497 444.077 670.057 443.685 670.524C443.293 671.009 442.798 671.373 442.201 671.616C441.622 671.877 441.072 672.008 440.549 672.008C438.869 672.008 437.46 671.224 436.321 669.656C435.668 669.917 435.042 670.048 434.445 670.048C433.661 670.048 433.017 669.815 432.513 669.348C432.028 668.9 431.785 668.331 431.785 667.64C431.785 666.259 432.728 665.129 434.613 664.252C433.754 663.785 433.073 663.132 432.569 662.292C432.084 661.452 431.841 660.481 431.841 659.38C431.841 658.297 432.112 657.299 432.653 656.384C433.194 655.451 433.932 654.704 434.865 654.144C435.817 653.584 436.862 653.304 438.001 653.304C438.878 653.304 439.709 653.491 440.493 653.864C440.512 652.875 440.838 652.137 441.473 651.652C442.126 651.148 442.882 650.896 443.741 650.896C443.928 650.896 444.068 650.943 444.161 651.036C444.254 651.111 444.273 651.232 444.217 651.4L443.853 652.464C443.778 652.632 443.666 652.669 443.517 652.576C443.162 652.333 442.752 652.212 442.285 652.212C441.744 652.212 441.342 652.352 441.081 652.632C440.838 652.912 440.754 653.379 440.829 654.032C441.65 654.517 442.304 655.18 442.789 656.02C443.293 656.86 443.545 657.812 443.545 658.876C443.545 659.94 443.265 660.939 442.705 661.872C442.164 662.805 441.417 663.552 440.465 664.112C439.513 664.653 438.468 664.924 437.329 664.924C436.414 664.924 435.565 664.728 434.781 664.336C434.072 664.672 433.53 665.027 433.157 665.4C432.784 665.755 432.597 666.231 432.597 666.828C432.597 667.332 432.765 667.752 433.101 668.088C433.437 668.424 433.857 668.592 434.361 668.592C434.865 668.592 435.332 668.499 435.761 668.312C436.209 668.144 436.732 667.883 437.329 667.528C438.094 667.08 438.766 666.744 439.345 666.52C439.942 666.296 440.633 666.184 441.417 666.184ZM433.045 658.4C433.045 659.445 433.241 660.425 433.633 661.34C434.044 662.255 434.613 662.992 435.341 663.552C436.088 664.112 436.937 664.392 437.889 664.392C439.308 664.392 440.4 664.019 441.165 663.272C441.949 662.507 442.341 661.349 442.341 659.8C442.341 658.792 442.126 657.831 441.697 656.916C441.286 656.001 440.698 655.264 439.933 654.704C439.186 654.144 438.328 653.864 437.357 653.864C435.976 653.864 434.912 654.247 434.165 655.012C433.418 655.759 433.045 656.888 433.045 658.4ZM440.773 671.532C441.688 671.532 442.369 671.373 442.817 671.056C443.265 670.757 443.489 670.235 443.489 669.488C443.489 668.947 443.312 668.499 442.957 668.144C442.602 667.808 442.117 667.64 441.501 667.64C440.773 667.64 440.138 667.743 439.597 667.948C439.056 668.172 438.44 668.489 437.749 668.9C437.264 669.217 436.844 669.451 436.489 669.6C436.9 670.123 437.478 670.571 438.225 670.944C438.972 671.336 439.821 671.532 440.773 671.532ZM450.921 653.836C450.846 653.836 450.809 653.817 450.809 653.78C450.809 653.743 450.837 653.715 450.893 653.696C451.416 653.603 451.789 653.481 452.013 653.332C452.256 653.164 452.414 652.903 452.489 652.548C452.582 652.175 452.629 651.615 452.629 650.868C452.629 649.897 452.825 649.067 453.217 648.376C453.609 647.667 454.113 647.135 454.729 646.78C455.345 646.407 455.98 646.22 456.633 646.22C456.969 646.22 457.286 646.276 457.585 646.388C457.66 646.425 457.697 646.463 457.697 646.5C457.716 646.537 457.706 646.593 457.669 646.668C457.594 646.817 457.482 646.985 457.333 647.172C457.184 647.34 457.081 647.461 457.025 647.536C456.988 647.611 456.95 647.657 456.913 647.676C456.876 647.676 456.829 647.657 456.773 647.62C456.232 647.284 455.69 647.116 455.149 647.116C454.57 647.116 454.113 647.321 453.777 647.732C453.572 647.993 453.469 648.413 453.469 648.992C453.469 649.403 453.525 650 453.637 650.784C453.749 651.568 453.889 652.455 454.057 653.444C454.094 653.593 454.216 653.668 454.421 653.668H457.585C457.622 653.668 457.632 653.696 457.613 653.752C457.594 653.808 457.548 653.836 457.473 653.836H454.729C454.486 653.836 454.309 653.892 454.197 654.004C454.104 654.097 454.057 654.303 454.057 654.62V664.196C454.057 664.831 454.244 665.279 454.617 665.54C454.99 665.801 455.541 665.932 456.269 665.932C456.381 665.932 456.437 665.969 456.437 666.044C456.437 666.1 456.381 666.128 456.269 666.128C455.877 666.109 455.168 666.1 454.141 666.1H452.489C451.705 666.1 451.164 666.109 450.865 666.128C450.79 666.128 450.753 666.1 450.753 666.044C450.753 665.988 450.79 665.96 450.865 665.96C451.425 665.96 451.845 665.829 452.125 665.568C452.424 665.288 452.573 664.831 452.573 664.196V654.592C452.573 654.312 452.545 654.116 452.489 654.004C452.433 653.892 452.312 653.836 452.125 653.836H450.921ZM465.572 653.276C466.113 653.276 466.627 653.379 467.112 653.584C467.597 653.789 467.971 654.06 468.232 654.396C468.493 654.732 468.587 655.077 468.512 655.432L467.672 658.82C467.653 658.951 467.616 659.007 467.56 658.988C467.504 658.951 467.495 658.885 467.532 658.792C467.644 658.232 467.7 657.737 467.7 657.308C467.7 656.319 467.448 655.609 466.944 655.18C466.459 654.732 465.768 654.508 464.872 654.508C463.715 654.508 462.921 655.003 462.492 655.992C462.063 656.981 461.848 658.176 461.848 659.576V664.392C461.848 664.933 461.997 665.325 462.296 665.568C462.595 665.811 463.005 665.951 463.528 665.988C463.603 665.988 463.64 666.016 463.64 666.072C463.64 666.128 463.603 666.156 463.528 666.156C463.173 666.137 462.38 666.128 461.148 666.128C459.916 666.128 459.104 666.137 458.712 666.156C458.637 666.156 458.6 666.128 458.6 666.072C458.6 665.997 458.637 665.96 458.712 665.96C459.291 665.96 459.711 665.857 459.972 665.652C460.233 665.428 460.364 664.999 460.364 664.364V655.964C460.364 655.516 460.28 655.189 460.112 654.984C459.963 654.779 459.701 654.676 459.328 654.676C459.16 654.676 458.945 654.704 458.684 654.76C458.628 654.779 458.591 654.769 458.572 654.732C458.553 654.676 458.563 654.639 458.6 654.62C460.149 654.247 461.223 653.855 461.82 653.444C461.895 653.388 461.96 653.379 462.016 653.416C462.072 653.435 462.1 653.463 462.1 653.5C462.025 654.004 461.96 654.48 461.904 654.928C461.867 655.357 461.848 655.861 461.848 656.44V657.308C462.52 654.62 463.761 653.276 465.572 653.276ZM472.786 664.224C472.786 664.747 472.935 665.167 473.234 665.484C473.551 665.783 473.962 665.951 474.466 665.988C474.54 665.988 474.578 666.016 474.578 666.072C474.578 666.128 474.54 666.156 474.466 666.156C474.13 666.137 473.327 666.128 472.058 666.128C470.807 666.128 470.004 666.137 469.65 666.156C469.575 666.156 469.538 666.128 469.538 666.072C469.538 665.997 469.575 665.96 469.65 665.96C470.751 665.997 471.302 665.419 471.302 664.224V655.964C471.302 655.516 471.218 655.189 471.05 654.984C470.9 654.779 470.639 654.676 470.266 654.676C470.098 654.676 469.883 654.704 469.622 654.76C469.566 654.779 469.528 654.769 469.51 654.732C469.491 654.676 469.5 654.639 469.538 654.62C471.087 654.247 472.16 653.855 472.758 653.444C472.832 653.388 472.898 653.379 472.954 653.416C473.01 653.435 473.038 653.463 473.038 653.5C472.963 654.004 472.898 654.48 472.842 654.928C472.804 655.357 472.786 655.861 472.786 656.44V664.224ZM471.778 649.272C471.442 649.272 471.162 649.197 470.938 649.048C470.732 648.88 470.63 648.684 470.63 648.46C470.63 648.18 470.76 647.947 471.022 647.76C471.302 647.555 471.656 647.452 472.086 647.452C472.422 647.452 472.692 647.536 472.898 647.704C473.122 647.853 473.234 648.049 473.234 648.292C473.234 648.553 473.094 648.787 472.814 648.992C472.552 649.179 472.207 649.272 471.778 649.272ZM487.71 663.776C487.729 663.739 487.757 663.739 487.794 663.776C487.832 663.795 487.841 663.832 487.822 663.888C487.094 664.765 486.292 665.409 485.414 665.82C484.537 666.231 483.538 666.436 482.418 666.436C481.336 666.436 480.328 666.175 479.394 665.652C478.48 665.111 477.752 664.364 477.21 663.412C476.669 662.441 476.398 661.331 476.398 660.08C476.398 658.755 476.697 657.579 477.294 656.552C477.892 655.507 478.694 654.704 479.702 654.144C480.71 653.565 481.802 653.276 482.978 653.276C484.285 653.276 485.368 653.668 486.226 654.452C487.085 655.217 487.514 656.225 487.514 657.476C487.514 658.017 487.412 658.624 487.206 659.296L484.378 659.352C481.448 659.389 479.217 659.436 477.686 659.492C477.761 660.799 478.116 661.909 478.75 662.824C479.385 663.72 480.15 664.392 481.046 664.84C481.942 665.288 482.82 665.512 483.678 665.512C484.369 665.512 485.088 665.391 485.834 665.148C486.581 664.905 487.206 664.448 487.71 663.776ZM482.334 653.724C479.236 653.724 477.686 655.488 477.686 659.016V659.324C478.694 659.305 480.057 659.259 481.774 659.184C483.716 659.109 485.078 659.063 485.862 659.044C485.993 658.671 486.058 658.26 486.058 657.812C486.058 657.121 485.89 656.459 485.554 655.824C485.237 655.189 484.789 654.685 484.21 654.312C483.632 653.92 483.006 653.724 482.334 653.724ZM505.489 662.404C505.489 662.311 505.517 662.264 505.573 662.264C505.647 662.245 505.685 662.292 505.685 662.404C505.685 663.729 505.461 664.737 505.013 665.428C504.583 666.1 504.079 666.436 503.501 666.436C503.015 666.436 502.623 666.24 502.325 665.848C502.045 665.437 501.802 664.803 501.597 663.944L499.861 656.748C499.711 656.113 499.534 655.609 499.329 655.236C499.142 654.863 498.853 654.583 498.461 654.396C498.069 654.191 497.527 654.088 496.837 654.088C496.09 654.088 495.399 654.293 494.765 654.704C494.13 655.096 493.617 655.693 493.225 656.496C492.851 657.28 492.665 658.241 492.665 659.38V664.392C492.665 664.933 492.814 665.325 493.113 665.568C493.411 665.811 493.822 665.951 494.345 665.988C494.419 665.988 494.457 666.016 494.457 666.072C494.457 666.128 494.419 666.156 494.345 666.156C493.99 666.137 493.197 666.128 491.965 666.128C490.733 666.128 489.921 666.137 489.529 666.156C489.454 666.156 489.417 666.128 489.417 666.072C489.417 665.997 489.454 665.96 489.529 665.96C490.107 665.96 490.527 665.857 490.789 665.652C491.05 665.428 491.181 664.999 491.181 664.364V655.964C491.181 655.516 491.097 655.189 490.929 654.984C490.779 654.779 490.518 654.676 490.145 654.676C489.977 654.676 489.762 654.704 489.501 654.76C489.445 654.779 489.407 654.769 489.389 654.732C489.37 654.676 489.379 654.639 489.417 654.62C490.966 654.247 492.039 653.855 492.637 653.444C492.711 653.388 492.777 653.379 492.833 653.416C492.889 653.435 492.917 653.463 492.917 653.5C492.842 654.004 492.777 654.48 492.721 654.928C492.683 655.357 492.665 655.861 492.665 656.44V657.196C492.87 656.487 493.225 655.833 493.729 655.236C494.233 654.639 494.821 654.163 495.493 653.808C496.165 653.453 496.837 653.276 497.509 653.276C498.703 653.276 499.571 653.547 500.113 654.088C500.673 654.611 501.083 655.432 501.345 656.552L503.081 663.664C503.211 664.243 503.37 664.681 503.557 664.98C503.743 665.279 503.977 665.428 504.257 665.428C504.387 665.428 504.546 665.344 504.733 665.176C504.938 665.008 505.115 664.7 505.265 664.252C505.414 663.804 505.489 663.188 505.489 662.404ZM520.48 662.432C520.48 662.339 520.508 662.292 520.564 662.292C520.62 662.292 520.648 662.339 520.648 662.432C520.648 663.589 520.489 664.532 520.172 665.26C519.854 665.988 519.322 666.352 518.576 666.352C518.034 666.352 517.605 666.147 517.288 665.736C516.97 665.325 516.812 664.719 516.812 663.916V663.384L516.728 662.992C516.728 662.936 516.709 662.908 516.672 662.908C516.634 662.908 516.606 662.945 516.588 663.02C516.065 664.121 515.402 664.971 514.6 665.568C513.816 666.165 512.836 666.464 511.66 666.464C510.708 666.464 509.821 666.203 509 665.68C508.197 665.139 507.553 664.392 507.068 663.44C506.582 662.488 506.34 661.405 506.34 660.192C506.34 658.997 506.62 657.868 507.18 656.804C507.74 655.74 508.496 654.891 509.448 654.256C510.4 653.603 511.417 653.276 512.5 653.276C513.358 653.276 514.161 653.472 514.908 653.864C515.654 654.256 516.289 654.807 516.812 655.516V648.88C516.812 648.376 516.728 648.021 516.56 647.816C516.41 647.611 516.196 647.508 515.916 647.508C515.841 647.508 515.71 647.527 515.524 647.564C515.393 647.583 515.337 647.536 515.356 647.424C516.046 647.256 516.634 647.069 517.12 646.864C517.624 646.659 518.062 646.379 518.436 646.024C518.566 646.005 518.613 646.052 518.576 646.164C518.464 646.593 518.389 647.153 518.352 647.844C518.314 648.535 518.296 649.608 518.296 651.064V663.636C518.296 664.775 518.594 665.344 519.192 665.344C519.752 665.344 520.106 665.092 520.256 664.588C520.405 664.084 520.48 663.365 520.48 662.432ZM512.752 665.484C514.114 665.484 515.132 665.008 515.804 664.056C516.476 663.104 516.812 661.788 516.812 660.108V659.128C516.774 658.344 516.606 657.551 516.308 656.748C516.028 655.945 515.57 655.264 514.936 654.704C514.32 654.144 513.545 653.864 512.612 653.864C510.894 653.864 509.634 654.303 508.832 655.18C508.048 656.057 507.656 657.355 507.656 659.072C507.656 660.211 507.87 661.275 508.3 662.264C508.729 663.253 509.326 664.037 510.092 664.616C510.876 665.195 511.762 665.484 512.752 665.484ZM521.829 661.396C521.847 661.321 521.875 661.293 521.913 661.312C521.969 661.312 521.997 661.349 521.997 661.424C521.959 661.872 521.941 662.171 521.941 662.32C521.941 663.627 522.277 664.569 522.949 665.148C523.621 665.708 524.629 665.988 525.973 665.988C527.093 665.988 527.961 665.82 528.577 665.484C529.211 665.129 529.529 664.513 529.529 663.636C529.51 662.852 529.202 662.208 528.605 661.704C528.007 661.2 526.981 660.603 525.525 659.912C524.237 659.277 523.285 658.727 522.669 658.26C522.071 657.793 521.773 657.224 521.773 656.552C521.773 656.029 521.969 655.516 522.361 655.012C522.771 654.489 523.331 654.069 524.041 653.752C524.769 653.435 525.571 653.276 526.449 653.276C527.55 653.276 528.521 653.425 529.361 653.724C530.201 654.023 530.621 654.471 530.621 655.068C530.621 655.18 530.611 655.264 530.593 655.32L529.977 658.036C529.958 658.111 529.921 658.148 529.865 658.148C529.827 658.129 529.818 658.083 529.837 658.008C529.874 657.56 529.893 657.243 529.893 657.056C529.893 655.917 529.613 655.096 529.053 654.592C528.493 654.069 527.522 653.808 526.141 653.808C524.965 653.808 524.153 653.976 523.705 654.312C523.275 654.648 523.061 655.105 523.061 655.684C523.061 656.281 523.341 656.785 523.901 657.196C524.461 657.607 525.394 658.139 526.701 658.792C528.007 659.389 529.043 660.005 529.809 660.64C530.574 661.256 530.957 661.984 530.957 662.824C530.957 663.44 530.733 664.028 530.285 664.588C529.855 665.148 529.239 665.605 528.437 665.96C527.634 666.296 526.719 666.464 525.693 666.464C524.311 666.464 523.201 666.259 522.361 665.848C521.539 665.419 521.185 664.877 521.297 664.224L521.829 661.396ZM548.856 662.404C548.856 662.311 548.884 662.264 548.94 662.264C548.996 662.245 549.024 662.292 549.024 662.404C549.024 663.729 548.809 664.737 548.38 665.428C547.95 666.1 547.446 666.436 546.868 666.436C546.364 666.436 545.962 666.231 545.664 665.82C545.384 665.409 545.15 664.784 544.964 663.944L543.228 656.748C543.078 656.113 542.901 655.609 542.696 655.236C542.509 654.863 542.21 654.583 541.8 654.396C541.408 654.191 540.866 654.088 540.176 654.088C539.429 654.088 538.738 654.293 538.104 654.704C537.488 655.096 536.984 655.693 536.592 656.496C536.218 657.28 536.032 658.241 536.032 659.38V664.392C536.032 664.952 536.172 665.353 536.452 665.596C536.75 665.82 537.17 665.951 537.712 665.988C537.768 665.988 537.796 666.016 537.796 666.072C537.814 666.128 537.786 666.156 537.712 666.156C537.338 666.137 536.536 666.128 535.304 666.128C534.072 666.128 533.269 666.137 532.896 666.156C532.802 666.156 532.756 666.128 532.756 666.072C532.756 665.997 532.802 665.96 532.896 665.96C533.474 665.96 533.894 665.857 534.156 665.652C534.417 665.428 534.548 664.999 534.548 664.364L534.52 648.88C534.52 648.376 534.436 648.021 534.268 647.816C534.118 647.611 533.904 647.508 533.624 647.508C533.549 647.508 533.418 647.527 533.232 647.564C533.12 647.583 533.064 647.536 533.064 647.424C533.754 647.256 534.342 647.069 534.828 646.864C535.332 646.659 535.77 646.379 536.144 646.024C536.274 646.005 536.321 646.052 536.284 646.164C536.172 646.575 536.097 647.116 536.06 647.788C536.041 648.441 536.032 649.533 536.032 651.064V657.196C536.237 656.487 536.592 655.833 537.096 655.236C537.6 654.639 538.188 654.163 538.86 653.808C539.532 653.453 540.204 653.276 540.876 653.276C542.07 653.276 542.938 653.537 543.48 654.06C544.021 654.583 544.432 655.413 544.712 656.552L546.448 663.664C546.728 664.84 547.11 665.428 547.596 665.428C547.745 665.428 547.913 665.344 548.1 665.176C548.305 665.008 548.482 664.7 548.632 664.252C548.781 663.804 548.856 663.188 548.856 662.404ZM552.356 664.224C552.356 664.747 552.505 665.167 552.804 665.484C553.121 665.783 553.532 665.951 554.036 665.988C554.111 665.988 554.148 666.016 554.148 666.072C554.148 666.128 554.111 666.156 554.036 666.156C553.7 666.137 552.897 666.128 551.628 666.128C550.377 666.128 549.575 666.137 549.22 666.156C549.145 666.156 549.108 666.128 549.108 666.072C549.108 665.997 549.145 665.96 549.22 665.96C550.321 665.997 550.872 665.419 550.872 664.224V655.964C550.872 655.516 550.788 655.189 550.62 654.984C550.471 654.779 550.209 654.676 549.836 654.676C549.668 654.676 549.453 654.704 549.192 654.76C549.136 654.779 549.099 654.769 549.08 654.732C549.061 654.676 549.071 654.639 549.108 654.62C550.657 654.247 551.731 653.855 552.328 653.444C552.403 653.388 552.468 653.379 552.524 653.416C552.58 653.435 552.608 653.463 552.608 653.5C552.533 654.004 552.468 654.48 552.412 654.928C552.375 655.357 552.356 655.861 552.356 656.44V664.224ZM551.348 649.272C551.012 649.272 550.732 649.197 550.508 649.048C550.303 648.88 550.2 648.684 550.2 648.46C550.2 648.18 550.331 647.947 550.592 647.76C550.872 647.555 551.227 647.452 551.656 647.452C551.992 647.452 552.263 647.536 552.468 647.704C552.692 647.853 552.804 648.049 552.804 648.292C552.804 648.553 552.664 648.787 552.384 648.992C552.123 649.179 551.777 649.272 551.348 649.272ZM564.565 653.276C565.535 653.276 566.413 653.547 567.197 654.088C567.999 654.611 568.634 655.357 569.101 656.328C569.567 657.28 569.801 658.372 569.801 659.604C569.801 660.799 569.53 661.928 568.989 662.992C568.466 664.037 567.738 664.877 566.805 665.512C565.871 666.147 564.826 666.464 563.669 666.464C562.773 666.464 562.054 666.333 561.513 666.072C560.99 665.792 560.495 665.437 560.029 665.008C559.786 664.765 559.618 664.644 559.525 664.644C559.375 664.644 559.301 664.831 559.301 665.204V669.852C559.301 670.953 559.805 671.532 560.813 671.588C560.869 671.588 560.897 671.616 560.897 671.672C560.915 671.728 560.887 671.756 560.813 671.756C560.066 671.719 559.394 671.7 558.797 671.7C558.069 671.7 557.257 671.719 556.361 671.756C556.267 671.756 556.221 671.719 556.221 671.644C556.221 671.588 556.267 671.56 556.361 671.56C556.865 671.579 557.229 671.448 557.453 671.168C557.695 670.907 557.817 670.459 557.817 669.824V655.964C557.817 655.516 557.733 655.189 557.565 654.984C557.415 654.779 557.154 654.676 556.781 654.676C556.613 654.676 556.398 654.704 556.137 654.76C556.081 654.779 556.043 654.769 556.025 654.732C556.006 654.676 556.015 654.639 556.053 654.62C557.602 654.247 558.666 653.855 559.245 653.444C559.338 653.388 559.413 653.379 559.469 653.416C559.525 653.435 559.553 653.463 559.553 653.5C559.422 654.247 559.347 654.956 559.329 655.628C559.329 655.889 559.347 656.179 559.385 656.496C559.422 656.813 559.469 657 559.525 657.056C560.719 654.536 562.399 653.276 564.565 653.276ZM563.809 665.932C565.433 665.932 566.609 665.503 567.337 664.644C568.083 663.767 568.457 662.46 568.457 660.724C568.457 659.548 568.261 658.475 567.869 657.504C567.477 656.515 566.907 655.731 566.161 655.152C565.433 654.573 564.565 654.284 563.557 654.284C562.735 654.284 561.998 654.508 561.345 654.956C560.71 655.385 560.206 656.001 559.833 656.804C559.478 657.588 559.301 658.475 559.301 659.464V660.752C559.301 662.227 559.683 663.459 560.449 664.448C561.214 665.437 562.334 665.932 563.809 665.932ZM585.401 653.276C586.371 653.276 587.249 653.547 588.033 654.088C588.835 654.611 589.47 655.357 589.937 656.328C590.403 657.28 590.637 658.372 590.637 659.604C590.637 660.799 590.366 661.928 589.825 662.992C589.302 664.037 588.574 664.877 587.641 665.512C586.707 666.147 585.662 666.464 584.505 666.464C583.609 666.464 582.89 666.333 582.349 666.072C581.826 665.792 581.331 665.437 580.865 665.008C580.622 664.765 580.454 664.644 580.361 664.644C580.211 664.644 580.137 664.831 580.137 665.204V669.852C580.137 670.953 580.641 671.532 581.649 671.588C581.705 671.588 581.733 671.616 581.733 671.672C581.751 671.728 581.723 671.756 581.649 671.756C580.902 671.719 580.23 671.7 579.633 671.7C578.905 671.7 578.093 671.719 577.197 671.756C577.103 671.756 577.057 671.719 577.057 671.644C577.057 671.588 577.103 671.56 577.197 671.56C577.701 671.579 578.065 671.448 578.289 671.168C578.531 670.907 578.653 670.459 578.653 669.824V655.964C578.653 655.516 578.569 655.189 578.401 654.984C578.251 654.779 577.99 654.676 577.617 654.676C577.449 654.676 577.234 654.704 576.973 654.76C576.917 654.779 576.879 654.769 576.861 654.732C576.842 654.676 576.851 654.639 576.889 654.62C578.438 654.247 579.502 653.855 580.081 653.444C580.174 653.388 580.249 653.379 580.305 653.416C580.361 653.435 580.389 653.463 580.389 653.5C580.258 654.247 580.183 654.956 580.165 655.628C580.165 655.889 580.183 656.179 580.221 656.496C580.258 656.813 580.305 657 580.361 657.056C581.555 654.536 583.235 653.276 585.401 653.276ZM584.645 665.932C586.269 665.932 587.445 665.503 588.173 664.644C588.919 663.767 589.293 662.46 589.293 660.724C589.293 659.548 589.097 658.475 588.705 657.504C588.313 656.515 587.743 655.731 586.997 655.152C586.269 654.573 585.401 654.284 584.393 654.284C583.571 654.284 582.834 654.508 582.181 654.956C581.546 655.385 581.042 656.001 580.669 656.804C580.314 657.588 580.137 658.475 580.137 659.464V660.752C580.137 662.227 580.519 663.459 581.285 664.448C582.05 665.437 583.17 665.932 584.645 665.932ZM598.55 666.464C597.43 666.464 596.403 666.203 595.47 665.68C594.536 665.139 593.79 664.392 593.23 663.44C592.688 662.469 592.418 661.359 592.418 660.108C592.418 658.895 592.716 657.775 593.314 656.748C593.93 655.703 594.77 654.872 595.834 654.256C596.898 653.621 598.074 653.304 599.362 653.304C600.482 653.304 601.518 653.575 602.47 654.116C603.422 654.639 604.168 655.385 604.71 656.356C605.27 657.308 605.55 658.391 605.55 659.604C605.55 660.817 605.242 661.956 604.626 663.02C604.01 664.065 603.16 664.905 602.078 665.54C601.014 666.156 599.838 666.464 598.55 666.464ZM599.25 665.876C600.818 665.876 602.04 665.447 602.918 664.588C603.795 663.729 604.234 662.451 604.234 660.752C604.234 659.632 603.982 658.549 603.478 657.504C602.992 656.44 602.311 655.572 601.434 654.9C600.556 654.228 599.595 653.892 598.55 653.892C597.038 653.892 595.852 654.312 594.994 655.152C594.154 655.992 593.734 657.261 593.734 658.96C593.734 660.08 593.976 661.172 594.462 662.236C594.947 663.3 595.61 664.177 596.45 664.868C597.308 665.54 598.242 665.876 599.25 665.876ZM618.687 663.776C618.706 663.739 618.734 663.739 618.771 663.776C618.808 663.795 618.818 663.832 618.799 663.888C618.071 664.765 617.268 665.409 616.391 665.82C615.514 666.231 614.515 666.436 613.395 666.436C612.312 666.436 611.304 666.175 610.371 665.652C609.456 665.111 608.728 664.364 608.187 663.412C607.646 662.441 607.375 661.331 607.375 660.08C607.375 658.755 607.674 657.579 608.271 656.552C608.868 655.507 609.671 654.704 610.679 654.144C611.687 653.565 612.779 653.276 613.955 653.276C615.262 653.276 616.344 653.668 617.203 654.452C618.062 655.217 618.491 656.225 618.491 657.476C618.491 658.017 618.388 658.624 618.183 659.296L615.355 659.352C612.424 659.389 610.194 659.436 608.663 659.492C608.738 660.799 609.092 661.909 609.727 662.824C610.362 663.72 611.127 664.392 612.023 664.84C612.919 665.288 613.796 665.512 614.655 665.512C615.346 665.512 616.064 665.391 616.811 665.148C617.558 664.905 618.183 664.448 618.687 663.776ZM613.311 653.724C610.212 653.724 608.663 655.488 608.663 659.016V659.324C609.671 659.305 611.034 659.259 612.751 659.184C614.692 659.109 616.055 659.063 616.839 659.044C616.97 658.671 617.035 658.26 617.035 657.812C617.035 657.121 616.867 656.459 616.531 655.824C616.214 655.189 615.766 654.685 615.187 654.312C614.608 653.92 613.983 653.724 613.311 653.724ZM623.753 666.436C623.137 666.436 622.633 666.203 622.241 665.736C621.868 665.269 621.681 664.635 621.681 663.832V654.564C621.681 654.303 621.644 654.116 621.569 654.004C621.513 653.892 621.354 653.836 621.093 653.836H620.141C620.066 653.836 620.029 653.817 620.029 653.78C620.029 653.724 620.057 653.687 620.113 653.668C621.009 653.5 621.709 653.155 622.213 652.632C622.717 652.091 623.025 651.344 623.137 650.392C623.137 650.299 623.165 650.252 623.221 650.252C623.277 650.252 623.305 650.299 623.305 650.392C623.305 651.195 623.268 652.109 623.193 653.136V653.248C623.193 653.416 623.24 653.528 623.333 653.584C623.426 653.64 623.604 653.668 623.865 653.668H626.693C626.73 653.668 626.74 653.696 626.721 653.752C626.702 653.808 626.665 653.836 626.609 653.836H624.005C623.669 653.836 623.445 653.892 623.333 654.004C623.221 654.097 623.165 654.293 623.165 654.592V663.552C623.165 664.149 623.305 664.635 623.585 665.008C623.865 665.363 624.22 665.54 624.649 665.54C625.004 665.54 625.368 665.419 625.741 665.176C626.114 664.933 626.469 664.569 626.805 664.084C626.861 663.991 626.908 663.953 626.945 663.972C626.982 663.991 626.973 664.047 626.917 664.14C626.432 664.905 625.909 665.484 625.349 665.876C624.808 666.249 624.276 666.436 623.753 666.436ZM635.103 653.276C635.645 653.276 636.158 653.379 636.643 653.584C637.129 653.789 637.502 654.06 637.763 654.396C638.025 654.732 638.118 655.077 638.043 655.432L637.203 658.82C637.185 658.951 637.147 659.007 637.091 658.988C637.035 658.951 637.026 658.885 637.063 658.792C637.175 658.232 637.231 657.737 637.231 657.308C637.231 656.319 636.979 655.609 636.475 655.18C635.99 654.732 635.299 654.508 634.403 654.508C633.246 654.508 632.453 655.003 632.023 655.992C631.594 656.981 631.379 658.176 631.379 659.576V664.392C631.379 664.933 631.529 665.325 631.827 665.568C632.126 665.811 632.537 665.951 633.059 665.988C633.134 665.988 633.171 666.016 633.171 666.072C633.171 666.128 633.134 666.156 633.059 666.156C632.705 666.137 631.911 666.128 630.679 666.128C629.447 666.128 628.635 666.137 628.243 666.156C628.169 666.156 628.131 666.128 628.131 666.072C628.131 665.997 628.169 665.96 628.243 665.96C628.822 665.96 629.242 665.857 629.503 665.652C629.765 665.428 629.895 664.999 629.895 664.364V655.964C629.895 655.516 629.811 655.189 629.643 654.984C629.494 654.779 629.233 654.676 628.859 654.676C628.691 654.676 628.477 654.704 628.215 654.76C628.159 654.779 628.122 654.769 628.103 654.732C628.085 654.676 628.094 654.639 628.131 654.62C629.681 654.247 630.754 653.855 631.351 653.444C631.426 653.388 631.491 653.379 631.547 653.416C631.603 653.435 631.631 653.463 631.631 653.5C631.557 654.004 631.491 654.48 631.435 654.928C631.398 655.357 631.379 655.861 631.379 656.44V657.308C632.051 654.62 633.293 653.276 635.103 653.276ZM651.725 653.64C651.781 653.64 651.809 653.668 651.809 653.724C651.809 653.78 651.781 653.808 651.725 653.808C651.37 653.808 651.081 653.929 650.857 654.172C650.652 654.415 650.409 654.853 650.129 655.488L645.397 666.38C644.482 668.359 643.652 669.759 642.905 670.58C642.177 671.42 641.356 671.84 640.441 671.84C639.806 671.84 639.246 671.681 638.761 671.364C638.294 671.047 637.996 670.645 637.865 670.16C637.846 670.011 637.902 669.796 638.033 669.516C638.145 669.236 638.276 669.021 638.425 668.872C638.574 668.741 638.658 668.76 638.677 668.928C638.77 669.469 639.013 669.983 639.405 670.468C639.816 670.972 640.329 671.224 640.945 671.224C641.654 671.224 642.28 670.935 642.821 670.356C643.381 669.777 643.997 668.779 644.669 667.36C644.706 667.285 644.725 667.164 644.725 666.996C644.725 666.641 644.632 666.277 644.445 665.904L639.937 655.488C639.657 654.853 639.405 654.415 639.181 654.172C638.976 653.929 638.696 653.808 638.341 653.808C638.266 653.808 638.229 653.78 638.229 653.724C638.229 653.668 638.266 653.64 638.341 653.64C638.546 653.659 638.929 653.668 639.489 653.668H641.225C642.177 653.668 642.83 653.659 643.185 653.64C643.278 653.64 643.325 653.668 643.325 653.724C643.325 653.78 643.278 653.808 643.185 653.808C641.972 653.808 641.365 654.153 641.365 654.844C641.365 655.012 641.421 655.227 641.533 655.488L645.593 664.896C645.686 665.064 645.77 665.064 645.845 664.896L649.933 655.488C650.045 655.227 650.101 655.012 650.101 654.844C650.101 654.153 649.494 653.808 648.281 653.808C648.169 653.808 648.113 653.78 648.113 653.724C648.113 653.668 648.169 653.64 648.281 653.64C648.636 653.659 649.289 653.668 650.241 653.668H650.577C651.137 653.668 651.52 653.659 651.725 653.64Z" fill="black"/>
<defs>
<filter id="filter0_f_9_166" x="485.597" y="316.897" width="361.81" height="274.354" filterUnits="userSpaceOnUse" color-interpolation-filters="sRGB">
<feFlood flood-opacity="0" result="BackgroundImageFix"/>
<feBlend mode="normal" in="SourceGraphic" in2="BackgroundImageFix" result="shape"/>
<feGaussianBlur stdDeviation="1.694" result="effect1_foregroundBlur_9_166"/>
</filter>
<filter id="filter1_f_9_166" x="17.5251" y="462.497" width="312.277" height="242.873" filterUnits="userSpaceOnUse" color-interpolation-filters="sRGB">
<feFlood flood-opacity="0" result="BackgroundImageFix"/>
<feBlend mode="normal" in="SourceGraphic" in2="BackgroundImageFix" result="shape"/>
<feGaussianBlur stdDeviation="1.694" result="effect1_foregroundBlur_9_166"/>
</filter>
<filter id="filter2_g_9_166" x="369.355" y="181.755" width="243.722" height="185.803" filterUnits="userSpaceOnUse" color-interpolation-filters="sRGB">
<feFlood flood-opacity="0" result="BackgroundImageFix"/>
<feBlend mode="normal" in="SourceGraphic" in2="BackgroundImageFix" result="shape"/>
<feTurbulence type="fractalNoise" baseFrequency="0.029691388830542564 0.029691388830542564" numOctaves="3" seed="617" />
<feDisplacementMap in="shape" scale="8.1899995803833008" xChannelSelector="R" yChannelSelector="G" result="displacedImage" width="100%" height="100%" />
<feMerge result="effect1_texture_9_166">
<feMergeNode in="displacedImage"/>
</feMerge>
</filter>
<filter id="filter3_g_9_166" x="173.609" y="218.785" width="210.835" height="164.94" filterUnits="userSpaceOnUse" color-interpolation-filters="sRGB">
<feFlood flood-opacity="0" result="BackgroundImageFix"/>
<feBlend mode="normal" in="SourceGraphic" in2="BackgroundImageFix" result="shape"/>
<feTurbulence type="fractalNoise" baseFrequency="0.029691388830542564 0.029691388830542564" numOctaves="3" seed="617" />
<feDisplacementMap in="shape" scale="8.1899995803833008" xChannelSelector="R" yChannelSelector="G" result="displacedImage" width="100%" height="100%" />
<feMerge result="effect1_texture_9_166">
<feMergeNode in="displacedImage"/>
</feMerge>
</filter>
<filter id="filter4_gf_9_166" x="0.700195" y="0" width="755.3" height="550.9" filterUnits="userSpaceOnUse" color-interpolation-filters="sRGB">
<feFlood flood-opacity="0" result="BackgroundImageFix"/>
<feBlend mode="normal" in="SourceGraphic" in2="BackgroundImageFix" result="shape"/>
<feTurbulence type="fractalNoise" baseFrequency="0.014285714365541935 0.014285714365541935" numOctaves="3" seed="2091" />
<feDisplacementMap in="shape" scale="140" xChannelSelector="R" yChannelSelector="G" result="displacedImage" width="100%" height="100%" />
<feMerge result="effect1_texture_9_166">
<feMergeNode in="displacedImage"/>
</feMerge>
<feGaussianBlur stdDeviation="2.1" result="effect2_foregroundBlur_9_166"/>
</filter>
</defs>
</svg>
